<svg width="30" height="30" viewBox="0 0 20 20" fill="none" xmlns="http://www.w3.org/2000/svg">
<g clip-path="url(#clip0_103_40)">
<path d="M10 0C4.4775 0 0 4.47688 0 10C0 15.5231 4.47688 20 10 20C15.5231 20 20 15.5231 20 10C20 4.47688 15.5231 0 10 0ZM10 18.77C5.175 18.77 1.25 14.825 1.25 10C1.25 5.175 5.175 1.25 10 1.25C14.825 1.25 18.75 5.175 18.75 10C18.75 14.825 14.825 18.77 10 18.77ZM13.9912 6.34125L8.12375 12.245L5.48125 9.60312C5.2375 9.35937 4.84125 9.35937 4.59688 9.60312C4.3525 9.84687 4.3525 10.2425 4.59688 10.4869L7.69063 13.5806C7.93438 13.8244 8.33063 13.8244 8.575 13.5806C8.60313 13.5525 8.6275 13.5219 8.64937 13.49L14.8756 7.225C15.1194 6.98125 15.1194 6.585 14.8756 6.34063C14.6319 6.09625 14.2356 6.0975 13.9912 6.34125Z" fill="#213F98" stroke="#213F98" stroke-width="0.00064"/>
</g>
<defs>
<clipPath id="clip0_103_40">
<rect width="20" height="20" fill="white"/>
</clipPath>
</defs>
</svg>
