<svg width="30" height="30" viewBox="0 0 20 20" fill="none" xmlns="http://www.w3.org/2000/svg">
<g clip-path="url(#clip0_102_5)">
<path d="M14.7875 5.17804C13.1926 4.45347 11.5985 3.72746 10.0051 3L0 7.55481L1.71192 8.35305L1.57025 8.37504V16.9023H2.41356V9.06168L3.02075 8.96068L3.25687 9.07064V13.3778C3.25687 14.1223 7.64716 16.2556 8.52673 16.6758C8.98402 16.8926 9.4873 17.0036 9.99669 16.9999C10.5061 16.9962 11.0076 16.878 11.4615 16.6547C16.7499 14.04 16.7499 13.5587 16.7499 13.3778V9.07064L20 7.55807C20 7.55807 16.7954 6.09112 14.7875 5.17804ZM15.9066 13.2402C14.3582 14.2356 12.7453 15.134 11.0778 15.9297C10.7411 16.0957 10.369 16.1836 9.99103 16.1864C9.61306 16.1892 9.23961 16.1069 8.90032 15.946C7.22675 15.177 5.62132 14.2766 4.10019 13.254V9.46243L10.0034 12.2098L15.9066 9.46243V13.2402ZM10.0034 11.3073L4.451 8.72284L9.90639 7.81465L9.76303 7.01071L3.14303 8.11358L1.95986 7.56296L10.0025 3.90168C10.6983 4.22178 17.1901 7.17117 18.0494 7.56214L10.0034 11.3073Z" fill="#213f98"/>
</g>
<defs>
<clipPath id="clip0_102_5">
<rect width="20" height="20" fill="white"/>
</clipPath>
</defs>
</svg>
